<?xml version="1.0" standalone="no"?>
<!DOCTYPE svg PUBLIC "-//W3C//DTD SVG 20010904//EN"
 "http://www.w3.org/TR/2001/REC-SVG-20010904/DTD/svg10.dtd">
<svg version="1.0" xmlns="http://www.w3.org/2000/svg"
 width="460.000000pt" height="460.000000pt" viewBox="0 0 460.000000 460.000000"
 preserveAspectRatio="xMidYMid meet">
<metadata>
Created by potrace 1.14, written by Peter Selinger 2001-2017
</metadata>
<g transform="translate(0.000000,460.000000) scale(0.100000,-0.100000)"
fill="#000000" stroke="none">
<path d="M0 2300 l0 -2300 2300 0 2300 0 0 2300 0 2300 -2300 0 -2300 0 0
-2300z m3045 1199 c656 -327 691 -346 720 -387 50 -73 47 -117 -35 -492 -39
-179 -96 -440 -126 -580 -30 -140 -62 -279 -70 -307 -14 -52 -21 -58 -557
-541 -299 -269 -554 -496 -568 -505 -62 -41 -165 -38 -227 6 -16 12 -133 115
-259 228 -125 113 -282 255 -348 314 -448 404 -483 436 -498 473 -24 52 -277
1231 -277 1286 0 58 33 130 74 161 17 13 337 175 711 360 639 316 683 336 725
332 34 -3 208 -85 735 -348z"/>
<path d="M2225 3701 c-186 -49 -131 -191 75 -191 174 0 254 107 129 171 -45
22 -154 33 -204 20z"/>
<path d="M1817 3498 c-21 -6 -53 -25 -72 -43 -55 -51 -45 -100 28 -136 122
-63 337 -8 337 86 0 35 -46 80 -96 94 -47 13 -145 13 -197 -1z"/>
<path d="M1433 3290 c-92 -19 -163 -76 -163 -130 0 -65 117 -119 228 -106 237
28 261 220 30 240 -29 3 -72 1 -95 -4z"/>
<path d="M3045 3294 c-93 -24 -135 -57 -135 -109 0 -122 275 -180 386 -83 61
54 34 124 -63 166 -49 21 -151 35 -188 26z"/>
<path d="M2645 3051 c-224 -59 -148 -259 100 -260 164 -1 256 100 175 193 -17
18 -49 41 -72 51 -48 19 -159 28 -203 16z"/>
<path d="M2241 2788 c-63 -10 -131 -46 -155 -82 -9 -14 -16 -44 -16 -67 0
-107 177 -175 334 -130 29 9 64 29 87 51 33 31 39 43 39 79 0 52 -21 85 -74
116 -36 21 -57 27 -141 39 -11 2 -45 -1 -74 -6z"/>
<path d="M967 2633 c-4 -3 -7 -25 -7 -49 0 -87 128 -283 197 -300 41 -11 53 1
53 53 0 105 -135 303 -206 303 -17 0 -34 -3 -37 -7z"/>
<path d="M3515 2586 c-74 -74 -127 -183 -123 -252 3 -45 5 -49 30 -52 40 -5
126 79 174 170 29 56 37 83 38 127 l1 56 -33 3 c-27 3 -40 -4 -87 -52z"/>
<path d="M1709 2043 c-67 -80 119 -373 236 -373 45 0 58 20 53 78 -15 156
-226 372 -289 295z"/>
<path d="M2802 2043 c-47 -23 -133 -120 -166 -188 -99 -204 29 -256 175 -73
54 68 90 147 92 202 3 72 -32 93 -101 59z"/>
<path d="M3129 1925 c-80 -60 -163 -202 -157 -272 3 -34 6 -38 34 -41 80 -8
243 222 220 311 -9 36 -49 36 -97 2z"/>
<path d="M1115 1851 c-15 -48 36 -152 114 -232 42 -43 64 -59 84 -59 24 0 27
4 27 34 0 45 -28 109 -77 174 -67 88 -134 126 -148 83z"/>
<path d="M3375 1807 c-100 -102 -148 -237 -88 -245 64 -9 217 212 198 286 -10
39 -44 27 -110 -41z"/>
<path d="M1782 1278 c-35 -35 21 -162 112 -254 63 -63 107 -84 132 -63 51 42
-70 255 -177 309 -45 23 -51 24 -67 8z"/>
<path d="M2749 1270 c-76 -40 -189 -202 -189 -270 0 -45 23 -56 71 -35 106 48
235 265 187 313 -16 16 -26 15 -69 -8z"/>
</g>
</svg>
